<svg width="40" height="40" viewBox="0 0 40 40" fill="none" xmlns="http://www.w3.org/2000/svg">
<g clip-path="url(#clip0_118_97)">
<path d="M34.9857 40H4.99999C4.33825 40.0219 3.67918 39.9062 3.06443 39.6603C2.44969 39.4144 1.89266 39.0436 1.42856 38.5714C0.959933 38.1106 0.591238 37.5582 0.345457 36.9487C0.0996761 36.3392 -0.0179226 35.6855 -9.19893e-06 35.0286V4.99999C-0.0218945 4.33825 0.0937685 3.67918 0.339666 3.06443C0.585563 2.44969 0.956344 1.89266 1.42856 1.42856C1.89266 0.956344 2.44969 0.585563 3.06443 0.339666C3.67918 0.0937685 4.33825 -0.0218945 4.99999 -9.19893e-06H35C35.6617 -0.0218945 36.3208 0.0937685 36.9355 0.339666C37.5503 0.585563 38.1073 0.956344 38.5714 1.42856C39.0436 1.89266 39.4144 2.44969 39.6603 3.06443C39.9062 3.67918 40.0219 4.33825 40 4.99999V35C39.9925 36.3262 39.4613 37.5958 38.5222 38.5322C37.583 39.4687 36.312 39.9962 34.9857 40ZM31.2428 30.1428C31.5357 30.138 31.8199 30.0432 32.0571 29.8714C32.3543 29.7295 32.6057 29.507 32.7825 29.2291C32.9593 28.9513 33.0545 28.6293 33.0571 28.3V11.3286C33.068 11.0618 32.9984 10.798 32.8571 10.5714C32.7082 10.2662 32.4796 10.0068 32.1955 9.82073C31.9113 9.63465 31.5822 9.52877 31.2428 9.51428H8.47142C8.31943 9.52808 8.17272 9.57698 8.04285 9.65713C7.69734 9.77241 7.39493 9.9898 7.17558 10.2806C6.95622 10.5713 6.83024 10.9218 6.81428 11.2857V28.3C6.81646 28.58 6.90092 28.8533 7.05713 29.0857C7.19981 29.3928 7.42493 29.6542 7.70743 29.8408C7.98993 30.0275 8.31871 30.132 8.65713 30.1428H31.2428ZM29.3 26.3428H10.5857V15.7143L20 23.1571L29.3 15.7143V26.3428ZM20 18.3C15.8714 15.0428 13.7571 13.3571 13.6571 13.2714H26.2857L20 18.3Z" fill="black"/>
</g>
<defs>
<clipPath id="clip0_118_97">
<rect width="40" height="40" fill="white"/>
</clipPath>
</defs>
</svg>
