<svg width="40" height="40" viewBox="0 0 40 40" fill="none" xmlns="http://www.w3.org/2000/svg">
<path d="M34.9858 39.8H5.00006C4.34568 39.8142 3.69527 39.6949 3.08857 39.4493C2.48188 39.2036 1.93164 38.8369 1.47149 38.3714C1.00464 37.9123 0.636981 37.3622 0.391257 36.7553C0.145534 36.1483 0.0269741 35.4974 0.042915 34.8428V4.9714C0.0202732 4.31761 0.131515 3.66608 0.369808 3.05684C0.608102 2.44759 0.968417 1.89349 1.42863 1.42855C1.89376 0.957729 2.45098 0.587873 3.06547 0.342075C3.67996 0.0962782 4.33854 -0.0201797 5.00006 -2.53398e-05H35.0001C35.6615 -0.0193232 36.3198 0.0975284 36.9342 0.343276C37.5485 0.589024 38.1058 0.958424 38.5715 1.42855C39.0359 1.88653 39.4021 2.43435 39.6477 3.03857C39.8933 3.64279 40.0132 4.29073 40.0001 4.94283V34.8143C40.016 35.4689 39.8974 36.1198 39.6517 36.7267C39.406 37.3336 39.0383 37.8837 38.5715 38.3428C38.1066 38.8199 37.5481 39.1956 36.931 39.4464C36.3139 39.6972 35.6516 39.8176 34.9858 39.8ZM27.3001 30.2143C27.5841 30.2396 27.8673 30.1565 28.0926 29.9816C28.3178 29.8066 28.4685 29.5529 28.5143 29.2714L32.4715 10.3428C32.4828 10.2208 32.4655 10.0979 32.4208 9.98377C32.3762 9.86967 32.3055 9.76759 32.2143 9.68569C32.0558 9.53523 31.8471 9.44873 31.6286 9.44283C31.5524 9.44283 23.681 12.3524 8.01434 18.1714C7.83754 18.2278 7.6843 18.341 7.5784 18.4934C7.47249 18.6458 7.41985 18.8289 7.42863 19.0143C7.4386 19.1874 7.50356 19.3527 7.61404 19.4864C7.72453 19.62 7.87478 19.7148 8.04292 19.7571L13.7572 21.5285L16.0572 28.4285C16.1173 28.6166 16.2385 28.7792 16.4016 28.8905C16.5646 29.0018 16.7602 29.0554 16.9572 29.0428C17.0638 29.0425 17.1693 29.0208 17.2674 28.9791C17.3656 28.9374 17.4544 28.8765 17.5286 28.8L20.7715 25.7143L26.6143 30C26.8179 30.1351 27.0558 30.2094 27.3001 30.2143ZM16.8572 26.7285L15.1286 21.0143C23.4334 15.7285 27.6143 13.0857 27.6715 13.0857C27.8858 13.0857 28.0001 13.0857 28.0001 13.3143C28.0049 13.3426 28.0049 13.3716 28.0001 13.4C28.0001 13.4 24.4143 16.6857 17.2572 23.1143L16.8572 26.7285Z" fill="black"/>
</svg>
