<svg width="40" height="40" viewBox="0 0 40 40" fill="none" xmlns="http://www.w3.org/2000/svg">
<g clip-path="url(#clip0_118_103)">
<path fill-rule="evenodd" clip-rule="evenodd" d="M35.113 0C37.8102 0 40 2.18984 40 4.88703V35.113C40 37.8102 37.8102 40 35.113 40H4.88703C2.18984 40 0 37.8102 0 35.113V4.88703C0 2.18984 2.18977 0 4.88703 0L35.113 0ZM30.5291 9.9768C27.8852 7.32984 24.3692 5.87148 20.623 5.86992C12.9044 5.86992 6.62227 12.1516 6.61922 19.8726C6.6182 22.3408 7.26305 24.7498 8.48852 26.8735L6.50187 34.1301L13.9254 32.1828C15.9708 33.2984 18.2738 33.8865 20.6174 33.8872H20.6232C28.3411 33.8872 34.6237 27.6049 34.6269 19.8838C34.6283 16.142 33.173 12.6237 30.5291 9.9768ZM20.6231 31.5223H20.6184C18.5298 31.5215 16.4814 30.9603 14.6944 29.8998L14.2693 29.6476L9.86414 30.8032L11.0399 26.5081L10.7632 26.0677C9.59812 24.2146 8.98266 22.0727 8.98359 19.8734C8.98617 13.4561 14.2076 8.23508 20.6278 8.23508C23.7366 8.23617 26.659 9.44844 28.8566 11.6485C31.0541 13.8485 32.2636 16.7729 32.2624 19.8829C32.2598 26.3008 27.0385 31.5222 20.6231 31.5223ZM27.0076 22.805C26.6577 22.6298 24.9373 21.7835 24.6166 21.6666C24.2959 21.5498 24.0627 21.4916 23.8294 21.8417C23.5961 22.192 22.9255 22.9802 22.7214 23.2137C22.5173 23.4472 22.3132 23.4766 21.9634 23.3013C21.6134 23.1262 20.486 22.7567 19.1495 21.5645C18.1094 20.6367 17.407 19.4909 17.203 19.1406C16.9989 18.7903 17.1812 18.6009 17.3563 18.4266C17.5138 18.2698 17.7063 18.0178 17.8813 17.8135C18.0563 17.6092 18.1145 17.4632 18.2312 17.2298C18.3478 16.9962 18.2895 16.792 18.202 16.6168C18.1145 16.4417 17.4147 14.7193 17.1231 14.0187C16.8391 13.3364 16.5507 13.4288 16.3359 13.418C16.132 13.4079 15.8985 13.4057 15.6653 13.4057C15.432 13.4057 15.0529 13.4933 14.7322 13.8435C14.4115 14.1938 13.5076 15.0404 13.5076 16.7626C13.5076 18.4849 14.7613 20.1487 14.9363 20.3823C15.1113 20.6159 17.4036 24.15 20.9137 25.6656C21.7484 26.0262 22.4002 26.2415 22.9084 26.4027C23.7466 26.6691 24.5094 26.6315 25.1123 26.5413C25.7845 26.4409 27.1825 25.695 27.4741 24.8777C27.7656 24.0602 27.7656 23.3596 27.6781 23.2137C27.5907 23.0677 27.3574 22.9802 27.0076 22.805Z" fill="black"/>
</g>
<defs>
<clipPath id="clip0_118_103">
<rect width="40" height="40" fill="white"/>
</clipPath>
</defs>
</svg>
