<svg width="45" height="224" viewBox="0 0 45 224" fill="none" xmlns="http://www.w3.org/2000/svg">
<g clip-path="url(#clip0_1331_40)">
<path d="M45 112V0H8L45 112Z" fill="#121212"/>
<path d="M45 101.769V224H2L45 101.769Z" fill="#121212"/>
<path fill-rule="evenodd" clip-rule="evenodd" d="M25.4741 99.9059L7 0H11.3151C17.5492 0 20.6663 0 22.8718 1.93219C25.0772 3.8644 25.7116 7.15101 26.9803 13.7242L42.8453 95.9235C42.9068 96.2529 42.9676 96.5779 43.0277 96.8989C44.2344 103.348 45.1295 108.132 44.9846 113.056C44.8398 117.981 43.6655 122.691 42.0825 129.039C42.0037 129.355 41.9239 129.674 41.8432 129.999L20.3989 211.469C18.8115 217.5 18.0178 220.515 15.8771 222.258C13.7364 224 10.826 224 5.0054 224H0L24.7429 124.771C26.6625 117.062 27.1873 114.718 27.255 112.417C27.3226 110.115 26.9366 107.739 25.4741 99.9059Z" fill="white"/>
</g>
<defs>
<clipPath id="clip0_1331_40">
<rect width="45" height="224" fill="white"/>
</clipPath>
</defs>
</svg> 
